<svg xmlns="http://www.w3.org/2000/svg" id="prefix__telephone" width="32.927" height="33.051" viewBox="0 0 32.927 33.051">
    <path id="prefix__Path_17" d="M7.584 21.97a35.064 35.064 0 0 0 11.663 9.136 18.152 18.152 0 0 0 6.527 1.931c.158.007.308.014.466.014a5.4 5.4 0 0 0 4.191-1.8.149.149 0 0 0 .027-.034 17.645 17.645 0 0 1 1.322-1.37c.322-.308.651-.63.966-.959a3.307 3.307 0 0 0-.014-4.924l-4.116-4.116a3.332 3.332 0 0 0-2.411-1.109 3.444 3.444 0 0 0-2.438 1.1l-2.452 2.452c-.226-.13-.459-.247-.678-.356a8.469 8.469 0 0 1-.753-.411 25.948 25.948 0 0 1-6.2-5.643 14.943 14.943 0 0 1-2.1-3.342c.644-.582 1.246-1.192 1.829-1.787.205-.212.418-.425.63-.637a3.511 3.511 0 0 0 1.143-2.465 3.483 3.483 0 0 0-1.137-2.465l-2.041-2.042c-.24-.24-.466-.473-.7-.712-.452-.466-.925-.945-1.39-1.377A3.414 3.414 0 0 0 7.509 0a3.515 3.515 0 0 0-2.438 1.062L2.509 3.623A5.263 5.263 0 0 0 .941 6.992a12.675 12.675 0 0 0 .952 5.479 31.875 31.875 0 0 0 5.691 9.499zM2.612 7.136A3.623 3.623 0 0 1 3.7 4.808L6.249 2.26a1.844 1.844 0 0 1 1.26-.582 1.75 1.75 0 0 1 1.233.6c.459.425.89.87 1.356 1.342.233.24.473.479.712.726l2.041 2.041a1.86 1.86 0 0 1 .644 1.281 1.86 1.86 0 0 1-.644 1.281c-.212.212-.425.431-.637.644-.637.644-1.233 1.253-1.89 1.835l-.034.034a1.339 1.339 0 0 0-.342 1.52l.021.055a16.118 16.118 0 0 0 2.4 3.911 27.387 27.387 0 0 0 6.6 6.013 9.8 9.8 0 0 0 .9.493 8.469 8.469 0 0 1 .753.411l.075.041a1.432 1.432 0 0 0 .664.171 1.453 1.453 0 0 0 1.02-.466l2.561-2.561a1.812 1.812 0 0 1 1.253-.61 1.72 1.72 0 0 1 1.212.61l4.13 4.123a1.652 1.652 0 0 1-.021 2.582c-.288.308-.589.6-.911.911a19.722 19.722 0 0 0-1.431 1.486 3.76 3.76 0 0 1-2.938 1.246c-.116 0-.24-.007-.356-.014a16.491 16.491 0 0 1-5.9-1.767 33.311 33.311 0 0 1-11.1-8.7 30.509 30.509 0 0 1-5.41-9.006 11.046 11.046 0 0 1-.858-4.775z" data-name="Path 17" transform="translate(-.912)" style="fill:#fff"/>
</svg>
