<svg xmlns="http://www.w3.org/2000/svg" width="68.952" height="63.867" viewBox="0 0 68.952 63.867">
    <defs>
        <style>
            .prefix__cls-1{fill:#82c3dd}
        </style>
    </defs>
    <g id="prefix__icon_news-2-2-01">
        <g id="prefix__Group_432" data-name="Group 432" transform="translate(51.803)">
            <path id="prefix__Path_214" d="M223.768 52.5l-2.868-1.273 7.717-11.827 3.341 3.016zM229 42.15l-3.548 5.411 4.376-4.642z" class="prefix__cls-1" data-name="Path 214" transform="translate(-214.809 -37.803)"/>
            <path id="prefix__Path_215" d="M203.552 43.757L204.735 34l-4.435.03.148 7.037.059 3.519 3.016-.739.03-.089zm-.976-7.983l-.237 4.613-.65-4.583z" class="prefix__cls-1" data-name="Path 215" transform="translate(-200.3 -34)"/>
        </g>
        <g id="prefix__Group_433" data-name="Group 433" transform="translate(0 47.663)">
            <path id="prefix__Path_216" d="M55.6 210.9l5.854-15.7 2.779 1.508-4.08 14.7zm2.484-1.538l.739.059 2.129-7.776z" class="prefix__cls-1" data-name="Path 216" transform="translate(-46.582 -195.2)"/>
            <path id="prefix__Path_217" d="M28.441 207.849l4.494-7.924-1.862-2.425-5.973 7.569zm-1.064-3.223l2.572-2.809-1.774 3.341z" class="prefix__cls-1" data-name="Path 217" transform="translate(-25.1 -196.82)"/>
        </g>
        <g id="prefix__Group_434" data-name="Group 434" transform="translate(4.258 19.455)">
            <path id="prefix__Path_218" d="M39.5 122.956l3.134-.473 7.155 9.166-1.478-9.964 2.779-.384 2.1 14.34-3.016.444-7.333-9.343 1.478 10.171-2.779.384z" class="prefix__cls-1" data-name="Path 218" transform="translate(-39.5 -114.942)"/>
            <path id="prefix__Path_219" d="M99.311 116.972l-7.6 1.094.444 3.045 6.948-1.005.384 2.454-6.948 1.005.5 3.7 7.961-1.156.384 2.543-10.881 1.6-2.1-14.34 10.523-1.512z" class="prefix__cls-1" data-name="Path 219" transform="translate(-73.941 -110.082)"/>
            <path id="prefix__Path_220" d="M132.093 107.229l3.075 7.954.769 2.247.059-2.277.384-8.516 3.193-.473 2.9 7.954.769 2.247.118-2.277.71-8.545 3.046-.444-1.951 14.932-2.868.444-2.927-8.131-.917-2.691-.089 2.839-.532 8.634-2.779.384-6.15-13.749z" class="prefix__cls-1" data-name="Path 220" transform="translate(-102.466 -103.532)"/>
            <path id="prefix__Path_221" d="M200.686 110.59a2.579 2.579 0 0 0 3.459 1.951 8.531 8.531 0 0 0 1.745-.473 1.681 1.681 0 0 0 1.035-1.833 1.276 1.276 0 0 0-.8-1.005 7.147 7.147 0 0 0-2.07-.384l-1.6-.118a9.7 9.7 0 0 1-3.312-.621 3.578 3.578 0 0 1-1.892-2.9 4.15 4.15 0 0 1 .946-3.43 6.21 6.21 0 0 1 3.992-1.892 6.426 6.426 0 0 1 4.11.65 4.233 4.233 0 0 1 2.188 3.223l-2.868.444a2.083 2.083 0 0 0-1.449-1.685 4.232 4.232 0 0 0-1.863-.089 3.99 3.99 0 0 0-1.833.739 1.431 1.431 0 0 0-.5 1.419 1.306 1.306 0 0 0 .887 1.064 11.45 11.45 0 0 0 1.981.325l2.572.237a6.505 6.505 0 0 1 2.6.65 3.615 3.615 0 0 1 1.715 2.72 4.225 4.225 0 0 1-1.029 3.518 6.815 6.815 0 0 1-4.11 1.951 7.13 7.13 0 0 1-4.613-.621 4.129 4.129 0 0 1-2.1-3.282z" class="prefix__cls-1" data-name="Path 221" transform="translate(-150.568 -99.797)"/>
        </g>
    </g>
</svg>
